<svg width="28" height="28" viewBox="0 0 28 28" fill="none" xmlns="http://www.w3.org/2000/svg">
<mask id="mask0_126_684" style="mask-type:luminance" maskUnits="userSpaceOnUse" x="4" y="4" width="20" height="20">
<path d="M4.37051 4.37036H23.6268V23.6266H4.37051V4.37036Z" fill="white"/>
</mask>
<g mask="url(#mask0_126_684)">
<mask id="mask1_126_684" style="mask-type:luminance" maskUnits="userSpaceOnUse" x="-6" y="-6" width="40" height="40">
<path d="M13.9984 -5.1394L33.1464 14.0085L13.9984 33.1562L-5.14935 14.0085L13.9984 -5.1394Z" fill="white"/>
</mask>
<g mask="url(#mask1_126_684)">
<mask id="mask2_126_684" style="mask-type:luminance" maskUnits="userSpaceOnUse" x="-6" y="-6" width="40" height="40">
<path d="M13.9984 -5.1394L33.1464 14.0085L13.9984 33.1562L-5.14935 14.0085L13.9984 -5.1394Z" fill="white"/>
</mask>
<g mask="url(#mask2_126_684)">
<path d="M23.5672 4.42944L19.0375 11.0049C17.7964 12.8076 17.7964 15.1887 19.0375 16.9914L23.5672 23.5668L16.9917 19.0371C15.189 17.796 12.8079 17.796 11.0052 19.0371L4.42975 23.5668L8.95946 16.9914C10.2006 15.1887 10.2006 12.8076 8.95946 11.0049L4.42975 4.42944L11.0052 8.95914C12.8079 10.2003 15.189 10.2003 16.9917 8.95914L23.5672 4.42944Z" fill="#532F16"/>
</g>
</g>
</g>
<path fill-rule="evenodd" clip-rule="evenodd" d="M14.0005 14.3774C11.6505 15.7377 10.0686 18.278 10.0686 21.1888C10.0686 24.0993 11.6505 26.6411 14.0005 27.9999C16.3506 26.6399 17.9325 24.0993 17.9325 21.1888C17.9325 18.278 16.3506 15.7365 14.0005 14.3774Z" fill="#B6632F"/>
<mask id="mask3_126_684" style="mask-type:luminance" maskUnits="userSpaceOnUse" x="0" y="10" width="14" height="8">
<path d="M0 10.0598H13.6339V17.9374H0V10.0598Z" fill="white"/>
</mask>
<g mask="url(#mask3_126_684)">
<path fill-rule="evenodd" clip-rule="evenodd" d="M13.6234 14.0003C12.2634 16.3503 9.72278 17.9322 6.81229 17.9322C3.90151 17.9322 1.35999 16.3503 0.000904083 14.0003C1.36113 11.6502 3.90151 10.0684 6.81229 10.0684C9.72278 10.0684 12.2646 11.6502 13.6234 14.0003Z" fill="#B6632F"/>
</g>
<path fill-rule="evenodd" clip-rule="evenodd" d="M14.3775 14.0003C15.7377 11.6502 18.2781 10.0684 21.1889 10.0684C24.0994 10.0684 26.6412 11.6502 28 14.0003C26.64 16.3503 24.0994 17.9322 21.1889 17.9322C18.2781 17.9322 15.7366 16.3503 14.3775 14.0003Z" fill="#B6632F"/>
<mask id="mask4_126_684" style="mask-type:luminance" maskUnits="userSpaceOnUse" x="10" y="0" width="8" height="14">
<path d="M10.0597 0H17.9373V13.6338H10.0597V0Z" fill="white"/>
</mask>
<g mask="url(#mask4_126_684)">
<path fill-rule="evenodd" clip-rule="evenodd" d="M14.0008 13.6234C16.3508 12.2635 17.9327 9.72282 17.9327 6.81234C17.9327 3.90157 16.3508 1.36006 14.0008 0.000976562C11.6507 1.3612 10.0688 3.90157 10.0688 6.81234C10.0688 9.72282 11.6507 12.2646 14.0008 13.6234Z" fill="#B6632F"/>
</g>
<path d="M5.71185 14.8137C5.84577 14.9026 5.98282 14.9866 6.12271 15.0655C6.26261 15.1445 6.40536 15.2183 6.55067 15.2866C6.69626 15.355 6.84386 15.4183 6.99372 15.4758C7.14388 15.5334 7.29574 15.5855 7.4496 15.632C7.60346 15.6784 7.75874 15.7192 7.91574 15.7542C8.07245 15.7892 8.23029 15.8186 8.38928 15.8422C8.54827 15.8656 8.70811 15.8833 8.86824 15.895C9.02865 15.9069 9.18906 15.9126 9.34976 15.9126C9.51046 15.9126 9.67087 15.9069 9.83128 15.895C9.99141 15.8833 10.1512 15.8656 10.3102 15.8422C10.4692 15.8186 10.6271 15.7892 10.7838 15.7542C10.9408 15.7192 11.0961 15.6784 11.2499 15.632C11.4038 15.5855 11.5556 15.5334 11.7055 15.4758C11.8557 15.4183 12.0033 15.355 12.1488 15.2866C12.2942 15.2183 12.4369 15.1445 12.5768 15.0655C12.7167 14.9866 12.8538 14.9026 12.9877 14.8137C13.5712 14.4245 13.5709 13.5555 12.9874 13.1662C12.8535 13.0774 12.7167 12.9936 12.5765 12.9147C12.4366 12.8357 12.2939 12.7619 12.1486 12.6936C12.0033 12.6252 11.8554 12.5622 11.7055 12.5047C11.5554 12.4471 11.4035 12.395 11.2496 12.3485C11.0958 12.3021 10.9405 12.2613 10.7838 12.2263C10.6268 12.1912 10.4689 12.1619 10.31 12.1385C10.151 12.1149 9.99141 12.0975 9.83128 12.0855C9.67087 12.0739 9.51046 12.0679 9.34976 12.0679C9.18906 12.0679 9.02865 12.0739 8.86824 12.0855C8.70811 12.0975 8.54855 12.1149 8.38957 12.1385C8.23058 12.1619 8.07273 12.1912 7.91574 12.2263C7.75903 12.2613 7.60375 12.3021 7.44989 12.3485C7.29603 12.395 7.14416 12.4471 6.99401 12.5047C6.84414 12.5622 6.69626 12.6252 6.55095 12.6936C6.40564 12.7622 6.2629 12.8357 6.123 12.9147C5.98282 12.9936 5.84605 13.0774 5.71214 13.1665C5.12861 13.5557 5.12861 14.4242 5.71185 14.8137Z" fill="#955932"/>
<path d="M14.8146 22.269C14.9037 22.1351 14.9875 21.9984 15.0664 21.8582C15.1453 21.7183 15.2191 21.5755 15.2875 21.4302C15.3559 21.2849 15.4192 21.137 15.4767 20.9872C15.5343 20.837 15.5864 20.6852 15.6329 20.5313C15.6793 20.3774 15.72 20.2222 15.7551 20.0655C15.7901 19.9085 15.8195 19.7506 15.8428 19.5916C15.8665 19.4326 15.8842 19.2731 15.8958 19.113C15.9075 18.9525 15.9135 18.7921 15.9135 18.6314C15.9135 18.4707 15.9075 18.31 15.8958 18.1499C15.8842 17.9898 15.8665 17.83 15.8428 17.671C15.8195 17.512 15.7901 17.3541 15.7551 17.1974C15.72 17.0404 15.6793 16.8852 15.6329 16.7313C15.5864 16.5774 15.5343 16.4256 15.4767 16.2757C15.4192 16.1255 15.3559 15.978 15.2875 15.8324C15.2191 15.6871 15.1453 15.5443 15.0664 15.4044C14.9875 15.2645 14.9037 15.1275 14.8148 14.9935C14.4253 14.41 13.5566 14.41 13.1674 14.9935C13.0785 15.1275 12.9945 15.2645 12.9155 15.4044C12.8366 15.5443 12.7631 15.6871 12.6944 15.8324C12.6261 15.978 12.5631 16.1255 12.5055 16.2757C12.448 16.4256 12.3958 16.5774 12.3494 16.7313C12.3029 16.8852 12.2622 17.0404 12.2272 17.1974C12.1921 17.3541 12.1628 17.512 12.1391 17.671C12.1158 17.83 12.0981 17.9898 12.0864 18.1499C12.0747 18.31 12.0687 18.4707 12.0687 18.6314C12.0687 18.7921 12.0747 18.9525 12.0864 19.113C12.0981 19.2731 12.1158 19.4326 12.1394 19.5916C12.1628 19.7506 12.1921 19.9085 12.2272 20.0655C12.2622 20.2222 12.3029 20.3774 12.3494 20.5313C12.3958 20.6852 12.448 20.837 12.5055 20.9872C12.5631 21.137 12.6261 21.2849 12.6947 21.4302C12.7631 21.5755 12.8366 21.7183 12.9155 21.8585C12.9945 21.9984 13.0785 22.1351 13.1674 22.269C13.5566 22.8526 14.4253 22.8526 14.8146 22.269Z" fill="#955932"/>
<path d="M13.1674 5.7123C13.0785 5.84593 12.9945 5.98298 12.9155 6.12287C12.8366 6.26277 12.7631 6.40552 12.6947 6.55083C12.6261 6.69614 12.5631 6.84401 12.5055 6.99388C12.448 7.14404 12.3958 7.2959 12.3494 7.44976C12.3029 7.60362 12.2622 7.7589 12.2272 7.91561C12.1921 8.0726 12.1628 8.23044 12.1394 8.38943C12.1158 8.54842 12.0981 8.70798 12.0864 8.8681C12.0747 9.02851 12.0687 9.18892 12.0687 9.34962C12.0687 9.51032 12.0747 9.67073 12.0864 9.83086C12.0981 9.99127 12.1158 10.1508 12.1394 10.3098C12.1628 10.4688 12.1921 10.6266 12.2272 10.7834C12.2622 10.9403 12.3029 11.0956 12.3494 11.2495C12.3958 11.4033 12.448 11.5552 12.5055 11.7051C12.5631 11.8552 12.6261 12.0028 12.6947 12.1481C12.7631 12.2937 12.8366 12.4362 12.9155 12.5764C12.9945 12.7163 13.0785 12.853 13.1674 12.9869C13.5566 13.5705 14.4253 13.5702 14.8146 12.9869C14.9037 12.853 14.9875 12.7163 15.0664 12.5764C15.1453 12.4362 15.2191 12.2937 15.2875 12.1481C15.3559 12.0028 15.4192 11.8552 15.4767 11.7051C15.5343 11.5552 15.5864 11.4033 15.6329 11.2495C15.6793 11.0956 15.72 10.9403 15.7551 10.7834C15.7901 10.6266 15.8195 10.4688 15.8428 10.3098C15.8665 10.1508 15.8842 9.99127 15.8958 9.83086C15.9075 9.67073 15.9135 9.51032 15.9135 9.34962C15.9135 9.18892 15.9075 9.02851 15.8958 8.8681C15.8842 8.70798 15.8665 8.54842 15.8428 8.38943C15.8195 8.23044 15.7901 8.0726 15.7551 7.91561C15.72 7.7589 15.6793 7.60362 15.6329 7.44976C15.5864 7.2959 15.5343 7.14404 15.4767 6.99388C15.4192 6.84401 15.3559 6.69642 15.2875 6.55083C15.2191 6.40552 15.1453 6.26277 15.0664 6.12287C14.9875 5.98298 14.9037 5.84593 14.8146 5.7123C14.4253 5.12878 13.5566 5.12878 13.1674 5.7123Z" fill="#955932"/>
<path d="M22.2689 13.1665C22.135 13.0776 21.9983 12.9936 21.8581 12.9147C21.7182 12.8357 21.5754 12.7622 21.4301 12.6936C21.2848 12.6252 21.1372 12.5622 20.9871 12.5047C20.8372 12.4471 20.6851 12.395 20.5315 12.3485C20.3776 12.3021 20.2223 12.2613 20.0653 12.2263C19.9086 12.1912 19.7508 12.1619 19.5918 12.1385C19.4328 12.1149 19.2733 12.0975 19.1128 12.0855C18.9527 12.0739 18.7923 12.0679 18.6316 12.0679C18.4709 12.0679 18.3105 12.0739 18.1501 12.0855C17.99 12.0975 17.8304 12.1149 17.6714 12.1385C17.5124 12.1619 17.3546 12.1912 17.1979 12.2263C17.0409 12.2613 16.8856 12.3021 16.7317 12.3485C16.5779 12.395 16.426 12.4471 16.2761 12.5047C16.126 12.5622 15.9784 12.6252 15.8331 12.6936C15.6878 12.7622 15.545 12.8357 15.4048 12.9147C15.265 12.9936 15.1282 13.0774 14.9943 13.1665C14.4107 13.5557 14.4107 14.4242 14.994 14.8137C15.1279 14.9026 15.265 14.9866 15.4048 15.0655C15.5447 15.1445 15.6875 15.2183 15.8328 15.2866C15.9781 15.355 16.126 15.4183 16.2759 15.4758C16.426 15.5334 16.5779 15.5855 16.7317 15.632C16.8856 15.6784 17.0409 15.7192 17.1976 15.7542C17.3543 15.7892 17.5124 15.8186 17.6714 15.8422C17.8304 15.8656 17.99 15.8833 18.1501 15.895C18.3105 15.9069 18.4709 15.9126 18.6316 15.9126C18.7923 15.9126 18.9527 15.9069 19.1131 15.895C19.2733 15.8833 19.4328 15.8656 19.5918 15.8422C19.7508 15.8186 19.9086 15.7892 20.0656 15.7542C20.2223 15.7192 20.3776 15.6784 20.5315 15.632C20.6853 15.5855 20.8372 15.5334 20.9874 15.4758C21.1372 15.4183 21.2851 15.355 21.4304 15.2866C21.5757 15.2183 21.7185 15.1445 21.8584 15.0655C21.9983 14.9866 22.1353 14.9026 22.2689 14.8137C22.8525 14.4242 22.8522 13.5557 22.2689 13.1665Z" fill="#955932"/>
<mask id="mask5_126_684" style="mask-type:luminance" maskUnits="userSpaceOnUse" x="11" y="11" width="6" height="6">
<path d="M11.8397 11.8396H16.1575V16.1573H11.8397V11.8396Z" fill="white"/>
</mask>
<g mask="url(#mask5_126_684)">
<mask id="mask6_126_684" style="mask-type:luminance" maskUnits="userSpaceOnUse" x="11" y="11" width="6" height="6">
<path d="M13.9986 11.8396C12.8065 11.8396 11.8397 12.8063 11.8397 13.9985C11.8397 15.1906 12.8065 16.1573 13.9986 16.1573C15.1907 16.1573 16.1575 15.1906 16.1575 13.9985C16.1575 12.8063 15.1907 11.8396 13.9986 11.8396Z" fill="white"/>
</mask>
<g mask="url(#mask6_126_684)">
<path d="M11.8397 11.8396H16.1575V16.1573H11.8397V11.8396Z" fill="#532F16"/>
</g>
</g>
</svg>
